# Blender v3.0.0 OBJ File: ''
# www.blender.org
v -135.817001 1.088235 41.624172
v -135.817001 1.088235 -38.375828
v -135.817001 -1.911765 41.624172
v -135.817001 -1.911765 -38.375828
v -132.257370 -1.911765 -32.578762
v -132.257370 1.088235 -32.578762
v -132.317001 -1.911765 -32.125828
v -132.317001 1.088235 -32.125828
v -132.257370 -1.911765 -31.672895
v -132.257370 1.088235 -31.672895
v -132.082550 -1.911765 -31.250828
v -132.082550 1.088235 -31.250828
v -131.804443 -1.911765 -30.888391
v -131.804443 1.088235 -30.888391
v -131.442001 -1.911765 -30.610283
v -131.442001 1.088235 -30.610283
v -131.019928 -1.911765 -30.435457
v -131.019928 1.088235 -30.435457
v -130.567001 -1.911765 -30.375828
v -130.567001 1.088235 -30.375828
v -130.114075 -1.911765 -30.435457
v -130.114075 1.088235 -30.435457
v -129.692001 -1.911765 -30.610283
v -129.692001 1.088235 -30.610283
v -129.329559 -1.911765 -30.888391
v -129.329559 1.088235 -30.888391
v -129.051453 -1.911765 -31.250828
v -129.051453 1.088235 -31.250828
v -128.876633 -1.911765 -31.672895
v -128.876633 1.088235 -31.672895
v -128.817001 -1.911765 -32.125828
v -128.817001 1.088235 -32.125828
v -128.876633 -1.911765 -32.578762
v -128.876633 1.088235 -32.578762
v -129.051453 -1.911765 -33.000828
v -129.051453 1.088235 -33.000828
v -129.329559 -1.911765 -33.363266
v -129.329559 1.088235 -33.363266
v -129.692001 -1.911765 -33.641373
v -129.692001 1.088235 -33.641373
v -130.114075 -1.911765 -33.816196
v -130.114075 1.088235 -33.816196
v -130.567001 -1.911765 -33.875828
v -130.567001 1.088235 -33.875828
v -131.019928 -1.911765 -33.816196
v -131.019928 1.088235 -33.816196
v -131.442001 -1.911765 -33.641373
v -131.442001 1.088235 -33.641373
v -131.804443 -1.911765 -33.363266
v -131.804443 1.088235 -33.363266
v -132.082550 -1.911765 -33.000828
v -132.082550 1.088235 -33.000828
v -0.217001 0.088235 -31.125828
v -0.217001 6.088235 -31.125828
v -14.817007 0.088235 -31.125828
v -101.067009 0.088235 -31.125828
v -14.817007 -1.911765 -31.125828
v -101.067009 -1.911765 -31.125828
v -116.067009 6.088235 -31.125828
v -116.067009 0.088235 -31.125828
v -132.257370 -1.911765 35.921238
v -132.257370 1.088235 35.921238
v -132.317001 -1.911765 36.374172
v -132.317001 1.088235 36.374172
v -132.257370 -1.911765 36.827106
v -132.257370 1.088235 36.827106
v -132.082550 -1.911765 37.249172
v -132.082550 1.088235 37.249172
v -131.804443 -1.911765 37.611607
v -131.804443 1.088235 37.611607
v -131.442001 -1.911765 37.889713
v -131.442001 1.088235 37.889713
v -131.019928 -1.911765 38.064541
v -131.019928 1.088235 38.064541
v -130.567001 -1.911765 38.124172
v -130.567001 1.088235 38.124172
v -130.114075 -1.911765 38.064541
v -130.114075 1.088235 38.064541
v -129.692001 -1.911765 37.889713
v -129.692001 1.088235 37.889713
v -129.329559 -1.911765 37.611607
v -129.329559 1.088235 37.611607
v -129.051453 -1.911765 37.249172
v -129.051453 1.088235 37.249172
v -128.876633 -1.911765 36.827106
v -128.876633 1.088235 36.827106
v -128.817001 -1.911765 36.374172
v -128.817001 1.088235 36.374172
v -128.876633 -1.911765 35.921238
v -128.876633 1.088235 35.921238
v -129.051453 -1.911765 35.499172
v -129.051453 1.088235 35.499172
v -129.329559 -1.911765 35.136738
v -129.329559 1.088235 35.136738
v -129.692001 -1.911765 34.858631
v -129.692001 1.088235 34.858631
v -130.114075 -1.911765 34.683804
v -130.114075 1.088235 34.683804
v -130.567001 -1.911765 34.624172
v -130.567001 1.088235 34.624172
v -131.019928 -1.911765 34.683804
v -131.019928 1.088235 34.683804
v -131.442001 -1.911765 34.858631
v -131.442001 1.088235 34.858631
v -131.804443 -1.911765 35.136738
v -131.804443 1.088235 35.136738
v -132.082550 -1.911765 35.499172
v -132.082550 1.088235 35.499172
v -0.217001 6.088235 -33.125828
v -118.067009 6.088235 -33.125828
v -116.067009 6.088235 34.374172
v -118.067009 6.088235 36.374172
v -0.217001 6.088235 36.374172
v -0.217001 6.088235 34.374172
v -118.067009 1.088235 -33.125828
v -118.067009 1.088235 36.374172
v -0.217001 1.088235 -33.125828
v -116.067009 0.088235 34.374172
v -0.217001 0.088235 34.374172
v -14.817007 0.088235 34.374172
v -101.067009 0.088235 34.374172
v -14.817007 -1.911765 34.374172
v -101.067009 -1.911765 34.374172
v -0.217001 1.088235 36.374172
v -0.217001 1.088235 -38.375828
v -0.217001 1.088235 41.624172
v -0.217001 -1.911765 41.624172
v -0.217001 -1.911765 -38.375828
v -0.217001 6.088235 36.374172
v -0.217001 6.088235 34.374172
v -0.217001 1.088235 36.374172
v -0.217001 0.088235 34.374172
v -0.217001 1.088235 41.624172
v -0.217001 -1.911765 41.624172
v -0.217001 -1.911765 -38.375828
v -0.217001 0.088235 -31.125828
v -0.217001 1.088235 -38.375828
v -0.217001 1.088235 -33.125828
v -0.217001 6.088235 -31.125828
v -0.217001 6.088235 -33.125828
v 118.432991 6.088235 -33.125828
v 118.432991 1.088235 -33.125828
v 15.182993 0.088235 -31.125828
v 116.432991 6.088235 -31.125828
v 101.432991 0.088235 -31.125828
v 116.432991 0.088235 -31.125828
v 15.182993 -1.911765 -31.125828
v 101.432991 -1.911765 -31.125828
v 15.182993 0.088235 34.374172
v 116.432991 6.088235 34.374172
v 101.432991 0.088235 34.374172
v 116.432991 0.088235 34.374172
v 101.432991 -1.911765 34.374172
v 15.182993 -1.911765 34.374172
v 118.432991 6.088235 36.374172
v 125.182991 -1.911765 41.624172
v 125.182991 -1.911765 31.624172
v 125.353371 -1.911765 30.330074
v 125.852852 -1.911765 29.124172
v 126.647469 -1.911765 28.088634
v 129.417465 -1.911765 17.149174
v 127.682991 -1.911765 27.294048
v 129.695572 -1.911765 17.511608
v 130.057999 -1.911765 17.789715
v 136.182999 -1.911765 -38.375828
v 136.182999 -1.911765 26.624172
v 132.623367 -1.911765 15.821239
v 132.448532 -1.911765 15.399174
v 132.448532 -1.911765 -31.250828
v 132.170425 -1.911765 15.036736
v 132.170425 -1.911765 -30.888391
v 131.807999 -1.911765 14.758629
v 131.807999 -1.911765 -30.610283
v 131.385941 -1.911765 14.583801
v 131.385941 -1.911765 -30.435457
v 130.932999 -1.911765 14.524174
v 130.932999 -1.911765 -30.375828
v 130.480057 -1.911765 14.583801
v 130.480057 -1.911765 -30.435457
v 130.057999 -1.911765 -30.610283
v 129.695572 -1.911765 -30.888391
v 129.417465 -1.911765 -31.250828
v 129.242630 -1.911765 -31.672895
v 129.182999 -1.911765 -32.125828
v 129.242630 -1.911765 -32.578762
v 129.417465 -1.911765 -33.000828
v 129.695572 -1.911765 -33.363266
v 130.057999 -1.911765 -33.641373
v 130.480057 -1.911765 -33.816196
v 130.932999 -1.911765 -33.875828
v 131.385941 -1.911765 -33.816196
v 131.807999 -1.911765 -33.641373
v 132.170425 -1.911765 -33.363266
v 132.448532 -1.911765 -33.000828
v 132.623367 -1.911765 -32.578762
v 132.682999 -1.911765 -32.125828
v 132.623367 -1.911765 -31.672895
v 130.182999 -1.911765 26.624172
v 131.385941 -1.911765 17.964542
v 131.807999 -1.911765 17.789715
v 132.170425 -1.911765 17.511608
v 128.888901 -1.911765 26.794544
v 130.480057 -1.911765 17.964542
v 130.932999 -1.911765 18.024174
v 129.242630 -1.911765 15.821239
v 129.182999 -1.911765 16.274174
v 129.242630 -1.911765 16.727104
v 132.448532 -1.911765 17.149174
v 132.623367 -1.911765 16.727104
v 132.682999 -1.911765 16.274174
v 130.057999 -1.911765 14.758629
v 129.695572 -1.911765 15.036736
v 129.417465 -1.911765 15.399174
v 118.432991 1.088235 36.374172
v 129.242630 1.088235 15.821239
v 129.182999 1.088235 16.274174
v 129.242630 1.088235 16.727104
v 129.417465 1.088235 17.149174
v 129.695572 1.088235 17.511608
v 130.057999 1.088235 17.789715
v 130.480057 1.088235 17.964542
v 130.932999 1.088235 18.024174
v 131.385941 1.088235 17.964542
v 131.807999 1.088235 17.789715
v 132.170425 1.088235 17.511608
v 132.448532 1.088235 17.149174
v 132.623367 1.088235 16.727104
v 132.682999 1.088235 16.274174
v 132.623367 1.088235 15.821239
v 132.448532 1.088235 15.399174
v 132.170425 1.088235 15.036736
v 131.807999 1.088235 14.758629
v 131.385941 1.088235 14.583801
v 130.932999 1.088235 14.524174
v 130.480057 1.088235 14.583801
v 130.057999 1.088235 14.758629
v 129.695572 1.088235 15.036736
v 129.417465 1.088235 15.399174
v 129.242630 1.088235 -32.578762
v 129.182999 1.088235 -32.125828
v 129.242630 1.088235 -31.672895
v 129.417465 1.088235 -31.250828
v 129.695572 1.088235 -30.888391
v 130.057999 1.088235 -30.610283
v 130.480057 1.088235 -30.435457
v 130.932999 1.088235 -30.375828
v 131.385941 1.088235 -30.435457
v 131.807999 1.088235 -30.610283
v 132.170425 1.088235 -30.888391
v 132.448532 1.088235 -31.250828
v 132.623367 1.088235 -31.672895
v 132.682999 1.088235 -32.125828
v 132.623367 1.088235 -32.578762
v 132.448532 1.088235 -33.000828
v 132.170425 1.088235 -33.363266
v 131.807999 1.088235 -33.641373
v 131.385941 1.088235 -33.816196
v 130.932999 1.088235 -33.875828
v 130.480057 1.088235 -33.816196
v 130.057999 1.088235 -33.641373
v 129.695572 1.088235 -33.363266
v 129.417465 1.088235 -33.000828
v 125.182991 1.088235 31.624172
v 125.182991 1.088235 41.624172
v 130.182999 1.088235 26.624172
v 128.888901 1.088235 26.794544
v 127.682991 1.088235 27.294048
v 126.647469 1.088235 28.088634
v 125.852852 1.088235 29.124172
v 125.353371 1.088235 30.330074
v 136.182999 1.088235 26.624172
v 136.182999 1.088235 -38.375828
vn -1.0000 0.0000 0.0000
vn 0.9659 0.0000 0.2588
vn 1.0000 0.0000 0.0000
vn 0.9659 0.0000 -0.2588
vn 0.8660 0.0000 -0.5000
vn 0.7071 0.0000 -0.7071
vn 0.5000 0.0000 -0.8660
vn 0.2588 0.0000 -0.9659
vn -0.0000 0.0000 -1.0000
vn -0.2588 0.0000 -0.9659
vn -0.5000 0.0000 -0.8660
vn -0.7071 0.0000 -0.7071
vn -0.8660 0.0000 -0.5000
vn -0.9659 0.0000 -0.2588
vn -0.9659 0.0000 0.2588
vn -0.8660 0.0000 0.5000
vn -0.7071 0.0000 0.7071
vn -0.5000 0.0000 0.8660
vn -0.2588 0.0000 0.9659
vn -0.0000 0.0000 1.0000
vn 0.2588 0.0000 0.9659
vn 0.5000 0.0000 0.8660
vn 0.7071 0.0000 0.7071
vn 0.8660 0.0000 0.5000
vn 0.0000 1.0000 0.0000
vn 0.0000 -1.0000 -0.0000
s 1
f 1//1 2//1 3//1
f 3//1 2//1 4//1
f 5//2 6//2 7//3
f 7//3 6//2 8//3
f 7//3 8//3 9//4
f 9//4 8//3 10//4
f 9//4 10//4 11//5
f 11//5 10//4 12//5
f 11//5 12//5 13//6
f 13//6 12//5 14//6
f 13//6 14//6 15//7
f 15//7 14//6 16//7
f 15//7 16//7 17//8
f 17//8 16//7 18//8
f 17//8 18//8 19//9
f 19//9 18//8 20//9
f 19//9 20//9 21//10
f 21//10 20//9 22//10
f 21//10 22//10 23//11
f 23//11 22//10 24//11
f 23//11 24//11 25//12
f 25//12 24//11 26//12
f 25//12 26//12 27//13
f 27//13 26//12 28//13
f 27//13 28//13 29//14
f 29//14 28//13 30//14
f 29//14 30//14 31//1
f 31//1 30//14 32//1
f 31//1 32//1 33//15
f 33//15 32//1 34//15
f 33//15 34//15 35//16
f 35//16 34//15 36//16
f 35//16 36//16 37//17
f 37//17 36//16 38//17
f 37//17 38//17 39//18
f 39//18 38//17 40//18
f 39//18 40//18 41//19
f 41//19 40//18 42//19
f 41//19 42//19 43//20
f 43//20 42//19 44//20
f 43//20 44//20 45//21
f 45//21 44//20 46//21
f 45//21 46//21 47//22
f 47//22 46//21 48//22
f 47//22 48//22 49//23
f 49//23 48//22 50//23
f 49//23 50//23 51//24
f 51//24 50//23 52//24
f 51//24 52//24 5//2
f 5//2 52//24 6//2
f 53//20 54//20 55//20
f 55//20 54//20 56//20
f 55//20 56//20 57//20
f 57//20 56//20 58//20
f 54//20 59//20 56//20
f 56//20 59//20 60//20
f 61//2 62//2 63//3
f 63//3 62//2 64//3
f 63//3 64//3 65//4
f 65//4 64//3 66//4
f 65//4 66//4 67//5
f 67//5 66//4 68//5
f 67//5 68//5 69//6
f 69//6 68//5 70//6
f 69//6 70//6 71//7
f 71//7 70//6 72//7
f 71//7 72//7 73//8
f 73//8 72//7 74//8
f 73//8 74//8 75//9
f 75//9 74//8 76//9
f 75//9 76//9 77//10
f 77//10 76//9 78//10
f 77//10 78//10 79//11
f 79//11 78//10 80//11
f 79//11 80//11 81//12
f 81//12 80//11 82//12
f 81//12 82//12 83//13
f 83//13 82//12 84//13
f 83//13 84//13 85//14
f 85//14 84//13 86//14
f 85//14 86//14 87//1
f 87//1 86//14 88//1
f 87//1 88//1 89//15
f 89//15 88//1 90//15
f 89//15 90//15 91//16
f 91//16 90//15 92//16
f 91//16 92//16 93//17
f 93//17 92//16 94//17
f 93//17 94//17 95//18
f 95//18 94//17 96//18
f 95//18 96//18 97//19
f 97//19 96//18 98//19
f 97//19 98//19 99//20
f 99//20 98//19 100//20
f 99//20 100//20 101//21
f 101//21 100//20 102//21
f 101//21 102//21 103//22
f 103//22 102//21 104//22
f 103//22 104//22 105//23
f 105//23 104//22 106//23
f 105//23 106//23 107//24
f 107//24 106//23 108//24
f 107//24 108//24 61//2
f 61//2 108//24 62//2
f 54//25 109//25 59//25
f 59//25 109//25 110//25
f 59//25 110//25 111//25
f 111//25 110//25 112//25
f 111//25 112//25 113//25
f 113//25 114//25 111//25
f 115//1 116//1 110//1
f 110//1 116//1 112//1
f 117//9 115//9 109//9
f 109//9 115//9 110//9
f 118//3 60//3 111//3
f 111//3 60//3 59//3
f 119//9 120//9 114//9
f 114//9 120//9 121//9
f 114//9 121//9 111//9
f 111//9 121//9 118//9
f 122//9 123//9 120//9
f 120//9 123//9 121//9
f 56//25 60//25 121//25
f 121//25 60//25 118//25
f 123//3 58//3 121//3
f 121//3 58//3 56//3
f 53//25 55//25 119//25
f 119//25 55//25 120//25
f 120//1 55//1 122//1
f 122//1 55//1 57//1
f 113//20 112//20 124//20
f 124//20 112//20 116//20
f 66//25 64//25 1//25
f 1//25 64//25 62//25
f 1//25 62//25 108//25
f 1//25 108//25 12//25
f 12//25 108//25 106//25
f 12//25 106//25 14//25
f 14//25 106//25 104//25
f 14//25 104//25 16//25
f 16//25 104//25 102//25
f 16//25 102//25 18//25
f 18//25 102//25 100//25
f 18//25 100//25 20//25
f 20//25 100//25 22//25
f 22//25 100//25 98//25
f 22//25 98//25 116//25
f 116//25 98//25 96//25
f 116//25 96//25 94//25
f 94//25 92//25 116//25
f 116//25 92//25 90//25
f 116//25 90//25 88//25
f 88//25 86//25 116//25
f 116//25 86//25 84//25
f 116//25 84//25 82//25
f 82//25 80//25 116//25
f 116//25 80//25 78//25
f 116//25 78//25 1//25
f 1//25 78//25 76//25
f 1//25 76//25 74//25
f 74//25 72//25 1//25
f 1//25 72//25 70//25
f 1//25 70//25 68//25
f 68//25 66//25 1//25
f 10//25 8//25 2//25
f 2//25 8//25 6//25
f 2//25 6//25 52//25
f 52//25 50//25 2//25
f 2//25 50//25 48//25
f 2//25 48//25 46//25
f 46//25 44//25 2//25
f 2//25 44//25 42//25
f 2//25 42//25 115//25
f 115//25 42//25 40//25
f 115//25 40//25 38//25
f 38//25 36//25 115//25
f 115//25 36//25 34//25
f 115//25 34//25 32//25
f 32//25 30//25 115//25
f 115//25 30//25 28//25
f 115//25 28//25 26//25
f 26//25 24//25 115//25
f 115//25 24//25 22//25
f 115//25 22//25 116//25
f 1//25 12//25 2//25
f 2//25 12//25 10//25
f 117//25 125//25 115//25
f 115//25 125//25 2//25
f 1//25 126//25 116//25
f 116//25 126//25 124//25
f 126//20 1//20 127//20
f 127//20 1//20 3//20
f 5//26 7//26 4//26
f 4//26 7//26 9//26
f 4//26 9//26 11//26
f 13//26 105//26 11//26
f 11//26 105//26 107//26
f 11//26 107//26 3//26
f 3//26 107//26 61//26
f 3//26 61//26 63//26
f 105//26 13//26 103//26
f 103//26 13//26 15//26
f 103//26 15//26 101//26
f 101//26 15//26 17//26
f 101//26 17//26 99//26
f 99//26 17//26 19//26
f 99//26 19//26 21//26
f 23//26 58//26 21//26
f 21//26 58//26 123//26
f 21//26 123//26 97//26
f 97//26 123//26 95//26
f 95//26 123//26 93//26
f 93//26 123//26 91//26
f 91//26 123//26 89//26
f 89//26 123//26 87//26
f 87//26 123//26 85//26
f 85//26 123//26 83//26
f 83//26 123//26 81//26
f 81//26 123//26 79//26
f 79//26 123//26 3//26
f 79//26 3//26 77//26
f 77//26 3//26 75//26
f 75//26 3//26 73//26
f 73//26 3//26 71//26
f 71//26 3//26 69//26
f 69//26 3//26 67//26
f 67//26 3//26 65//26
f 65//26 3//26 63//26
f 23//26 25//26 58//26
f 58//26 25//26 27//26
f 58//26 27//26 29//26
f 29//26 31//26 58//26
f 58//26 31//26 33//26
f 58//26 33//26 35//26
f 35//26 37//26 58//26
f 58//26 37//26 39//26
f 58//26 39//26 4//26
f 4//26 39//26 41//26
f 4//26 41//26 43//26
f 43//26 45//26 4//26
f 4//26 45//26 47//26
f 4//26 47//26 49//26
f 49//26 51//26 4//26
f 4//26 51//26 5//26
f 97//26 99//26 21//26
f 127//26 122//26 128//26
f 128//26 122//26 57//26
f 128//26 57//26 58//26
f 122//26 127//26 123//26
f 123//26 127//26 3//26
f 3//26 4//26 11//26
f 4//26 128//26 58//26
f 128//9 4//9 125//9
f 125//9 4//9 2//9
f 113//3 124//3 114//3
f 114//3 124//3 119//3
f 119//3 124//3 126//3
f 119//3 126//3 127//3
f 127//3 128//3 119//3
f 119//3 128//3 53//3
f 53//3 128//3 125//3
f 53//3 125//3 117//3
f 109//3 54//3 117//3
f 117//3 54//3 53//3
f 129//1 130//1 131//1
f 131//1 130//1 132//1
f 131//1 132//1 133//1
f 133//1 132//1 134//1
f 134//1 132//1 135//1
f 135//1 132//1 136//1
f 135//1 136//1 137//1
f 137//1 136//1 138//1
f 138//1 136//1 139//1
f 138//1 139//1 140//1
f 140//9 141//9 138//9
f 138//9 141//9 142//9
f 136//20 143//20 139//20
f 139//20 143//20 144//20
f 144//20 143//20 145//20
f 144//20 145//20 146//20
f 147//20 148//20 143//20
f 143//20 148//20 145//20
f 132//25 149//25 136//25
f 136//25 149//25 143//25
f 132//9 130//9 149//9
f 149//9 130//9 150//9
f 149//9 150//9 151//9
f 151//9 150//9 152//9
f 153//9 154//9 151//9
f 151//9 154//9 149//9
f 139//25 144//25 140//25
f 140//25 144//25 141//25
f 141//25 144//25 150//25
f 141//25 150//25 155//25
f 155//25 150//25 129//25
f 129//25 150//25 130//25
f 148//1 153//1 145//1
f 145//1 153//1 151//1
f 146//25 145//25 152//25
f 152//25 145//25 151//25
f 154//3 147//3 149//3
f 149//3 147//3 143//3
f 135//26 154//26 134//26
f 134//26 154//26 153//26
f 134//26 153//26 156//26
f 156//26 153//26 157//26
f 157//26 153//26 158//26
f 158//26 153//26 159//26
f 159//26 153//26 160//26
f 160//26 153//26 161//26
f 160//26 161//26 162//26
f 162//26 161//26 163//26
f 162//26 163//26 164//26
f 165//26 148//26 135//26
f 135//26 148//26 147//26
f 135//26 147//26 154//26
f 166//26 167//26 165//26
f 165//26 167//26 168//26
f 165//26 168//26 169//26
f 169//26 168//26 170//26
f 169//26 170//26 171//26
f 171//26 170//26 172//26
f 171//26 172//26 173//26
f 173//26 172//26 174//26
f 173//26 174//26 175//26
f 175//26 174//26 176//26
f 175//26 176//26 177//26
f 177//26 176//26 178//26
f 177//26 178//26 179//26
f 179//26 178//26 148//26
f 179//26 148//26 180//26
f 180//26 148//26 181//26
f 181//26 148//26 182//26
f 182//26 148//26 183//26
f 183//26 148//26 184//26
f 184//26 148//26 185//26
f 185//26 148//26 186//26
f 186//26 148//26 187//26
f 187//26 148//26 188//26
f 188//26 148//26 165//26
f 188//26 165//26 189//26
f 189//26 165//26 190//26
f 190//26 165//26 191//26
f 191//26 165//26 192//26
f 192//26 165//26 193//26
f 193//26 165//26 194//26
f 194//26 165//26 195//26
f 195//26 165//26 196//26
f 196//26 165//26 197//26
f 197//26 165//26 169//26
f 198//26 199//26 166//26
f 166//26 199//26 200//26
f 166//26 200//26 201//26
f 202//26 203//26 198//26
f 198//26 203//26 204//26
f 198//26 204//26 199//26
f 203//26 202//26 164//26
f 164//26 202//26 162//26
f 205//26 206//26 153//26
f 153//26 206//26 207//26
f 153//26 207//26 161//26
f 201//26 208//26 166//26
f 166//26 208//26 209//26
f 166//26 209//26 210//26
f 210//26 167//26 166//26
f 178//26 211//26 148//26
f 148//26 211//26 212//26
f 148//26 212//26 213//26
f 148//26 213//26 153//26
f 153//26 213//26 205//26
f 214//3 142//3 155//3
f 155//3 142//3 141//3
f 131//20 214//20 129//20
f 129//20 214//20 155//20
f 205//2 215//2 206//3
f 206//3 215//2 216//3
f 206//3 216//3 207//4
f 207//4 216//3 217//4
f 207//4 217//4 161//5
f 161//5 217//4 218//5
f 161//5 218//5 163//6
f 163//6 218//5 219//6
f 163//6 219//6 164//7
f 164//7 219//6 220//7
f 164//7 220//7 203//8
f 203//8 220//7 221//8
f 203//8 221//8 204//9
f 204//9 221//8 222//9
f 204//9 222//9 199//10
f 199//10 222//9 223//10
f 199//10 223//10 200//11
f 200//11 223//10 224//11
f 200//11 224//11 201//12
f 201//12 224//11 225//12
f 201//12 225//12 208//13
f 208//13 225//12 226//13
f 208//13 226//13 209//14
f 209//14 226//13 227//14
f 209//14 227//14 210//1
f 210//1 227//14 228//1
f 210//1 228//1 167//15
f 167//15 228//1 229//15
f 167//15 229//15 168//16
f 168//16 229//15 230//16
f 168//16 230//16 170//17
f 170//17 230//16 231//17
f 170//17 231//17 172//18
f 172//18 231//17 232//18
f 172//18 232//18 174//19
f 174//19 232//18 233//19
f 174//19 233//19 176//20
f 176//20 233//19 234//20
f 176//20 234//20 178//21
f 178//21 234//20 235//21
f 178//21 235//21 211//22
f 211//22 235//21 236//22
f 211//22 236//22 212//23
f 212//23 236//22 237//23
f 212//23 237//23 213//24
f 213//24 237//23 238//24
f 213//24 238//24 205//2
f 205//2 238//24 215//2
f 185//2 239//2 184//3
f 184//3 239//2 240//3
f 184//3 240//3 183//4
f 183//4 240//3 241//4
f 183//4 241//4 182//5
f 182//5 241//4 242//5
f 182//5 242//5 181//6
f 181//6 242//5 243//6
f 181//6 243//6 180//7
f 180//7 243//6 244//7
f 180//7 244//7 179//8
f 179//8 244//7 245//8
f 179//8 245//8 177//9
f 177//9 245//8 246//9
f 177//9 246//9 175//10
f 175//10 246//9 247//10
f 175//10 247//10 173//11
f 173//11 247//10 248//11
f 173//11 248//11 171//12
f 171//12 248//11 249//12
f 171//12 249//12 169//13
f 169//13 249//12 250//13
f 169//13 250//13 197//14
f 197//14 250//13 251//14
f 197//14 251//14 196//1
f 196//1 251//14 252//1
f 196//1 252//1 195//15
f 195//15 252//1 253//15
f 195//15 253//15 194//16
f 194//16 253//15 254//16
f 194//16 254//16 193//17
f 193//17 254//16 255//17
f 193//17 255//17 192//18
f 192//18 255//17 256//18
f 192//18 256//18 191//19
f 191//19 256//18 257//19
f 191//19 257//19 190//20
f 190//20 257//19 258//20
f 190//20 258//20 189//21
f 189//21 258//20 259//21
f 189//21 259//21 188//22
f 188//22 259//21 260//22
f 188//22 260//22 187//23
f 187//23 260//22 261//23
f 187//23 261//23 186//24
f 186//24 261//23 262//24
f 186//24 262//24 185//2
f 185//2 262//24 239//2
f 146//1 152//1 144//1
f 144//1 152//1 150//1
f 263//3 264//3 157//3
f 157//3 264//3 156//3
f 198//20 265//20 202//21
f 202//21 265//20 266//21
f 202//21 266//21 162//22
f 162//22 266//21 267//22
f 162//22 267//22 160//23
f 160//23 267//22 268//23
f 160//23 268//23 159//24
f 159//24 268//23 269//24
f 159//24 269//24 158//2
f 158//2 269//24 270//2
f 158//2 270//2 157//3
f 157//3 270//2 263//3
f 271//20 265//20 166//20
f 166//20 265//20 198//20
f 272//3 271//3 165//3
f 165//3 271//3 166//3
f 137//9 272//9 135//9
f 135//9 272//9 165//9
f 134//20 156//20 133//20
f 133//20 156//20 264//20
f 138//25 142//25 137//25
f 137//25 142//25 272//25
f 272//25 142//25 259//25
f 272//25 259//25 258//25
f 214//25 215//25 142//25
f 142//25 215//25 238//25
f 142//25 238//25 237//25
f 131//25 133//25 214//25
f 214//25 133//25 264//25
f 214//25 264//25 263//25
f 263//25 270//25 214//25
f 214//25 270//25 269//25
f 214//25 269//25 217//25
f 217//25 269//25 268//25
f 217//25 268//25 218//25
f 218//25 268//25 267//25
f 218//25 267//25 219//25
f 219//25 267//25 220//25
f 220//25 267//25 266//25
f 220//25 266//25 221//25
f 221//25 266//25 265//25
f 221//25 265//25 222//25
f 222//25 265//25 223//25
f 223//25 265//25 271//25
f 223//25 271//25 224//25
f 224//25 271//25 225//25
f 225//25 271//25 226//25
f 226//25 271//25 227//25
f 227//25 271//25 228//25
f 228//25 271//25 229//25
f 229//25 271//25 272//25
f 229//25 272//25 230//25
f 230//25 272//25 250//25
f 230//25 250//25 231//25
f 231//25 250//25 249//25
f 231//25 249//25 232//25
f 232//25 249//25 248//25
f 232//25 248//25 233//25
f 233//25 248//25 247//25
f 233//25 247//25 234//25
f 234//25 247//25 246//25
f 234//25 246//25 245//25
f 241//25 240//25 142//25
f 142//25 240//25 239//25
f 142//25 239//25 262//25
f 262//25 261//25 142//25
f 142//25 261//25 260//25
f 142//25 260//25 259//25
f 258//25 257//25 272//25
f 272//25 257//25 256//25
f 272//25 256//25 255//25
f 255//25 254//25 272//25
f 272//25 254//25 253//25
f 272//25 253//25 252//25
f 252//25 251//25 272//25
f 272//25 251//25 250//25
f 244//25 142//25 245//25
f 245//25 142//25 235//25
f 245//25 235//25 234//25
f 244//25 243//25 142//25
f 142//25 243//25 242//25
f 142//25 242//25 241//25
f 217//25 216//25 214//25
f 214//25 216//25 215//25
f 237//25 236//25 142//25
f 142//25 236//25 235//25
